<svg width="23" height="29" viewBox="0 0 23 29" fill="none" xmlns="http://www.w3.org/2000/svg">
<path d="M11.723 28.657C5.04 27.02 0 20.3 0 13.026V5.21L11.723 0L23.446 5.21V13.026C23.446 20.3 18.406 27.02 11.724 28.657H11.723ZM11.723 14.934C9.45 14.934 5.21 16.053 5.21 18.191V19.539H18.237V18.191C18.237 16.052 14 14.934 11.724 14.934H11.723ZM11.723 6.514C10.9808 6.51533 10.2695 6.81125 9.74545 7.33675C9.22136 7.86225 8.92734 8.57432 8.928 9.3165C8.92866 10.0587 9.22396 10.7702 9.74899 11.2948C10.274 11.8193 10.9858 12.114 11.728 12.114C12.4702 12.114 13.182 11.8193 13.707 11.2948C14.232 10.7702 14.5273 10.0587 14.528 9.3165C14.5287 8.57432 14.2346 7.86225 13.7105 7.33675C13.1865 6.81125 12.4752 6.51533 11.733 6.514H11.723Z" fill="#ECEFF0"/>
</svg>
